<svg aria-hidden="true" style="position: absolute; width: 0; height: 0; overflow: hidden;" version="1.1" xmlns="http://www.w3.org/2000/svg" xmlns:xlink="http://www.w3.org/1999/xlink">
  <defs>
    <symbol id="icon-star" viewBox="0 0 32 32">
      <path fill="#ffc531" style="fill: var(--color1, #ffc531); stroke: var(--color1, #ffc531)" stroke="#ffc531" stroke-linejoin="miter" stroke-linecap="butt" stroke-miterlimit="4" stroke-width="2.4" d="M19.6 9.394c0.318 0.604 0.898 1.024 1.57 1.14l7.6 1.314-5.376 5.534c-0.385 0.396-0.622 0.937-0.622 1.533 0 0.11 0.008 0.219 0.024 0.325l-0.001-0.012 1.1 7.636-6.924-3.404-0.234-0.1c-0.219-0.080-0.472-0.127-0.736-0.127s-0.517 0.046-0.751 0.132l0.015-0.005-0.234 0.1-6.924 3.404 1.1-7.636c0.014-0.094 0.022-0.202 0.022-0.313 0-0.596-0.237-1.138-0.623-1.534l0.001 0-5.378-5.534 7.602-1.312c0.685-0.122 1.252-0.547 1.564-1.128l0.006-0.012 3.6-6.826z"></path>
    </symbol>
    <symbol id="icon-x" viewBox="0 0 32 32">
      <path stroke-linejoin="round" stroke-linecap="round" stroke-miterlimit="4" stroke-width="2.5" d="M24 8l-16 16M8 8l16 16"></path>
    </symbol>
    <symbol id="icon-mdi_user" viewBox="0 0 32 32">
      <path fill="#0957c3" style="fill: var(--color2, #0957c3)" d="M16 5.333c2.946 0 5.333 2.388 5.333 5.333s-2.388 5.333-5.333 5.333v0c-2.946 0-5.333-2.388-5.333-5.333s2.388-5.333 5.333-5.333v0zM16 18.667c5.893 0 10.667 2.387 10.667 5.333v2.667h-21.333v-2.667c0-2.947 4.773-5.333 10.667-5.333z"></path>
    </symbol>
    <symbol id="icon-map-pin" viewBox="0 0 32 32">
      <path stroke-linejoin="round" stroke-linecap="round" stroke-miterlimit="4" stroke-width="3" d="M28 13.334c0 9.332-12 17.332-12 17.332s-12-8-12-17.332c0-6.627 5.373-12 12-12s12 5.373 12 12v0"></path>
      <path stroke-linejoin="round" stroke-linecap="round" stroke-miterlimit="4" stroke-width="3" d="M16 17.334c2.209 0 4-1.791 4-4s-1.791-4-4-4v0c-2.209 0-4 1.791-4 4s1.791 4 4 4v0"></path>
    </symbol>
    <symbol id="icon-heart" viewBox="0 0 32 32">
      <path stroke-linejoin="round" stroke-linecap="round" stroke-miterlimit="4" stroke-width="2.4615" d="M27.787 6.146c-1.327-1.328-3.161-2.149-5.187-2.149s-3.86 0.821-5.187 2.149l-1.413 1.414-1.413-1.414c-1.328-1.327-3.161-2.149-5.187-2.149-4.051 0-7.336 3.284-7.336 7.336 0 2.026 0.821 3.86 2.149 5.187l11.787 11.786 11.787-11.787c1.327-1.327 2.148-3.161 2.148-5.186s-0.821-3.859-2.148-5.186v0"></path>
    </symbol>
    <symbol id="icon-Group-82-1" viewBox="0 0 32 32">
      <path fill="#fff" style="fill: var(--color3, #fff)" d="M32 16c0 8.837-7.163 16-16 16s-16-7.163-16-16c0-8.837 7.163-16 16-16s16 7.163 16 16z"></path>
    </symbol>
    <symbol id="icon-Group-82" viewBox="0 0 32 32">
      <path fill="#fbfbfb" style="fill: var(--color4, #fbfbfb)" d="M32 16c0 8.837-7.163 16-16 16s-16-7.163-16-16c0-8.837 7.163-16 16-16s16 7.163 16 16z"></path>
      <path fill="#38cd3e" style="fill: var(--color5, #38cd3e)" d="M26.667 16c0 5.891-4.776 10.667-10.667 10.667s-10.667-4.776-10.667-10.667c0-5.891 4.776-10.667 10.667-10.667s10.667 4.776 10.667 10.667z"></path>
    </symbol>
    <symbol id="icon-eye-off" viewBox="0 0 32 32">
      <path stroke-linejoin="round" stroke-linecap="round" stroke-miterlimit="4" stroke-width="3.2" d="M23.92 23.92c-2.175 1.671-4.923 2.695-7.908 2.747l-0.012 0c-9.334 0-14.667-10.667-14.667-10.667 1.714-3.151 3.978-5.79 6.689-7.877l0.058-0.043M13.2 5.653c0.833-0.203 1.788-0.32 2.771-0.32 0.010 0 0.020 0 0.030 0h-0.002c9.333 0 14.666 10.667 14.666 10.667-0.871 1.615-1.826 3.008-2.91 4.289l0.030-0.036M18.826 18.827c-0.732 0.786-1.772 1.276-2.927 1.276-1.67 0-3.1-1.024-3.698-2.478l-0.010-0.027c-0.184-0.443-0.291-0.959-0.291-1.499 0-1.155 0.489-2.195 1.271-2.925l0.002-0.002M1.333 1.333l29.333 29.334"></path>
    </symbol>
    <symbol id="icon-clock" viewBox="0 0 32 32">
      <path stroke-linejoin="round" stroke-linecap="round" stroke-miterlimit="4" stroke-width="2.4" d="M16 29.333c7.364 0 13.333-5.969 13.333-13.333s-5.969-13.333-13.333-13.333v0c-7.364 0-13.333 5.969-13.333 13.333s5.969 13.333 13.333 13.333v0"></path>
      <path stroke-linejoin="round" stroke-linecap="round" stroke-miterlimit="4" stroke-width="2.4" d="M16 8v8l5.333 2.667"></path>
    </symbol>
    <symbol id="icon-chevron-down" viewBox="0 0 32 32">
      <path fill="none" stroke="#fbfbfb" style="stroke: var(--color4, #fbfbfb)" stroke-linejoin="round" stroke-linecap="round" stroke-miterlimit="4" stroke-width="3.2" d="M8 12l8 8 8-8"></path>
    </symbol>
    <symbol id="icon-fe_check" viewBox="0 0 32 32">
      <path fill="#fbfbfb" style="fill: var(--color4, #fbfbfb)" d="M8 13.333l-2.667 2.667 8 8 13.333-13.333-2.667-2.667-10.667 10.667z"></path>
    </symbol>
    <symbol id="icon-Arrow" viewBox="0 0 28 32">
      <path fill="#fbfbfb" style="fill: var(--color4, #fbfbfb)" d="M25.244 1.72c-0.142-0.977-0.975-1.72-1.98-1.72-0.099 0-0.196 0.007-0.291 0.021l0.011-0.001-17.824 2.504c-1.001 0.119-1.77 0.963-1.77 1.987 0 1.105 0.895 2 2 2 0.115 0 0.228-0.010 0.337-0.028l15.832-2.222 2.228 15.844c0.123 0.998 0.965 1.763 1.986 1.763 1.105 0 2-0.895 2-2 0-0.113-0.009-0.224-0.027-0.332l0.002 0.012zM3.194 31.956l21.666-28.752-3.194-2.408-21.666 28.752z"></path>
    </symbol>
  </defs>
</svg>
